0
SECTION
2
HEADER
9
$INSUNITS
70
4
9
$ACADVER
1
AC1014
9
$HANDSEED
5
FFFF
0
ENDSEC
0
SECTION
2
TABLES
0
TABLE
2
VPORT
5
8
100
AcDbSymbolTable
0
ENDTAB
0
TABLE
2
LTYPE
5
5
100
AcDbSymbolTable
0
LTYPE
5
14
100
AcDbSymbolTableRecord
100
AcDbLinetypeTableRecord
2
BYBLOCK
70
0
0
LTYPE
5
15
100
AcDbSymbolTableRecord
100
AcDbLinetypeTableRecord
2
BYLAYER
70
0
0
ENDTAB
0
TABLE
2
LAYER
5
2
100
AcDbSymbolTable
70
2
0
LAYER
5
50
100
AcDbSymbolTableRecord
100
AcDbLayerTableRecord
2
0
70
0
6
CONTINUOUS
0
ENDTAB
0
TABLE
2
STYLE
5
3
100
AcDbSymbolTable
70
1
0
STYLE
5
11
100
AcDbSymbolTableRecord
100
AcDbTextStyleTableRecord
2
STANDARD
70
0
0
ENDTAB
0
TABLE
2
VIEW
5
6
100
AcDbSymbolTable
70
0
0
ENDTAB
0
TABLE
2
UCS
5
7
100
AcDbSymbolTable
70
0
0
ENDTAB
0
TABLE
2
APPID
5
9
100
AcDbSymbolTable
70
2
0
APPID
5
12
100
AcDbSymbolTableRecord
100
AcDbRegAppTableRecord
2
ACAD
70
0
0
ENDTAB
0
TABLE
2
DIMSTYLE
5
A
100
AcDbSymbolTable
70
1
0
ENDTAB
0
TABLE
2
BLOCK_RECORD
5
1
100
AcDbSymbolTable
70
1
0
BLOCK_RECORD
5
1F
100
AcDbSymbolTableRecord
100
AcDbBlockTableRecord
2
*MODEL_SPACE
0
BLOCK_RECORD
5
1B
100
AcDbSymbolTableRecord
100
AcDbBlockTableRecord
2
*PAPER_SPACE
0
ENDTAB
0
ENDSEC
0
SECTION
2
BLOCKS
0
BLOCK
5
20
100
AcDbEntity
100
AcDbBlockBegin
2
*MODEL_SPACE
0
ENDBLK
5
21
100
AcDbEntity
100
AcDbBlockEnd
0
BLOCK
5
1C
100
AcDbEntity
100
AcDbBlockBegin
2
*PAPER_SPACE
0
ENDBLK
5
1D
100
AcDbEntity
100
AcDbBlockEnd
0
ENDSEC
0
SECTION
2
ENTITIES
0
LWPOLYLINE
5
100
100
AcDbEntity
8
0
100
AcDbPolyline
90
126
70
1
43
0.0
10
81.565027967291087
20
-84.665592068629081
42
-0.1987787044379826
10
68.565584536234539
20
-76.600966886425283
10
48.282149268508967
20
-48.373579807084241
42
-0.03593629659677449
10
40.763281398295121
20
-36.144076087821034
10
34.252317198029644
20
-23.619316230485751
42
-0.56270987786109528
10
36.914133814809603
20
-19.235577707995201
10
46.989218503859178
20
-19.235577707988931
42
0.41421356237309853
10
49.989218503857302
20
-16.235577707987062
10
49.989218503837051
20
16.264422292044014
42
0.41421356237272738
10
46.989218503838927
20
19.264422292042152
10
36.918097846133094
20
19.264422292048433
42
-0.56271480522671491
10
34.256301943464756
20
23.648200660331469
10
40.768600871982166
20
36.175069848494466
42
-0.035932549400233868
10
48.286778271807862
20
48.403245374669424
10
68.570652566053937
20
76.631243424062149
42
-0.19877870443798223
10
81.570095997110869
20
84.695868606265549
10
87.283810604547668
20
85.634542968141304
42
0.35195103835882963
10
91.080384232382059
20
89.801130877214902
42
0.10777563399007274
10
89.957694091760189
20
96.742441504119256
42
0.35293001930682177
10
85.060206097983354
20
99.557907526206407
10
75.633932790529627
20
98.010992869750467
42
-0.41441347880150758
10
74.39955181944282
20
98.89798557837004
10
72.859071040412474
20
108.32531247365725
42
0.35293001930681872
10
68.628561897432562
20
112.06897778480327
42
0.10777563399006949
10
61.691714489380161
20
110.91903239113313
42
0.35195103835882724
10
58.953706593665572
20
105.99178783878853
10
60.047124012507226
20
99.293084382181647
42
-0.28190029638586689
10
58.645897835275278
20
95.862856445631181
42
-0.11737104688026842
10
57.366134510725587
20
95.322118387812651
10
55.282703231756983
20
94.972835019749084
42
0.35163889639392287
10
51.532855697742519
20
90.769368155687033
42
0.023924779286598273
10
51.526044545397127
20
89.191250736206825
42
-0.14498302280176881
10
47.907262358889263
20
73.676355765804402
42
-0.026499738706026964
10
47.335574295180216
20
72.784630344553733
10
36.105964394950369
20
57.156974515063069
42
-0.035936296596770265
10
26.913440002324812
20
46.130115009283998
10
7.1866871579682314
20
25.654208895608672
42
-0.42517068931740604
10
-7.2164785013431842
20
25.654208895608654
10
-26.935043892164316
20
46.12161662481985
42
-0.035936296596772159
10
-36.127568284789774
20
57.148476130598816
10
-47.357178185019571
20
72.776131960089657
42
-0.02649973870603374
10
-47.928866248728696
20
73.66785738134034
42
-0.14498302280177006
10
-51.547648435236411
20
89.182752351742721
42
0.023924779286613972
10
-51.554459587581832
20
90.760869771222985
42
0.35163889639392143
10
-55.304307121596317
20
94.964336635285065
10
-57.387738400564913
20
95.313620003348632
42
-0.11737104688026875
10
-58.667501725114576
20
95.854358061167218
42
-0.28190029638587094
10
-60.068727902346559
20
99.284585997717613
10
-58.975310483504906
20
105.98328945432449
42
0.35195103835882258
10
-61.713318379219437
20
110.91053400666914
42
0.10777563399006773
10
-68.650165787271959
20
112.06047940033928
42
0.35293001930682377
10
-72.880674930251772
20
108.3168140891933
10
-74.421155709282317
20
98.889487193906035
42
-0.41441347880157359
10
-75.655536680369067
20
98.002494485286491
10
-85.081809987822666
20
99.549409141742416
42
0.35293001930680945
10
-89.979297981599515
20
96.733943119655351
42
0.10777563399007489
10
-91.101988122221371
20
89.792632492750911
42
0.35195103835882574
10
-87.305414494387051
20
85.626044583677242
10
-81.591699886950138
20
84.687370221801487
42
-0.19877870443798523
10
-68.592256455893079
20
76.622745039597959
10
-48.30838216164733
20
48.394746990205171
42
-0.035932549400234423
10
-40.790204761821641
20
36.16657146403027
10
-34.28232385820813
20
23.648200660331643
42
-0.55554757750224604
10
-36.878602415454566
20
19.265137797798587
42
0.035237263508510717
10
-37.018777630908048
20
19.252164704937925
10
-74.158535442267194
20
13.154430916810378
42
-0.014679893952503848
10
-75.322246260586866
20
12.998295317155335
42
0.38406577530480812
10
-78.010759891550606
20
10.014510433832102
10
-78.010761127181979
20
4.5007039708037579
42
0.41421362800979239
10
-76.010761127182022
20
2.5007035226083385
10
-67.500001005828381
20
2.5007035226083385
42
-0.99999999999999989
10
-67.500001005828381
20
-2.500000037252903
10
-76.010762331916254
20
-2.5000000372529065
42
0.41421345336422538
10
-78.010762331916112
20
-4.4999992928937615
10
-78.010764373506532
20
-9.9854976471555101
42
0.38406772382528831
10
-75.32223114477118
20
-12.969285248577219
42
-0.014679179887686357
10
-74.158575659363805
20
-13.125403952220321
10
-36.07032449282363
20
-19.378496048918702
42
-0.049892225975379796
10
-35.878066607878452
20
-19.430140117317855
42
-0.44899450553542086
10
-34.279038740008176
20
-23.619316230486042
10
-40.790926743474628
20
-36.145853153842829
42
-0.035936296596771042
10
-48.309794613688453
20
-48.375356873106
10
-68.593229881414032
20
-76.602743952447113
42
-0.19877870443798604
10
-81.592673312470737
20
-84.667369134650926
10
-87.30638791990836
20
-85.606043496527008
42
0.35195103835883218
10
-91.10296154774268
20
-89.77263140560062
42
0.10777563399006983
10
-89.980271407120753
20
-96.713942032505201
42
0.35293001930682161
10
-85.082783413343833
20
-99.52940805459194
10
-75.656510105890248
20
-97.982493398135929
42
-0.41441347880153784
10
-74.422129134803214
20
-98.869486106755332
10
-72.881648355772725
20
-108.29681300204274
42
0.35293001930681189
10
-68.651139212792629
20
-112.0404783131886
42
0.10777563399007853
10
-61.71429180474032
20
-110.89053291951836
42
0.3519510383588253
10
-58.976283909025717
20
-105.96328836717373
10
-60.069701327867548
20
-99.264584910566782
42
-0.28190029638587649
10
-58.66847515063553
20
-95.834356974016615
42
-0.11737104688021158
10
-57.38871182608559
20
-95.29361891619773
10
-55.305280547117484
20
-94.944335548134177
42
0.35163889639393325
10
-51.555433013103212
20
-90.740868684072126
42
0.023924779286603508
10
-51.548621860757429
20
-89.16275126459189
42
-0.14498302280177322
10
-47.929839674250232
20
-73.647856294189339
42
-0.026499738706017743
10
-47.358151610540887
20
-72.756130872938598
10
-36.128102683792079
20
-57.127864073395628
42
-0.035932549400234312
10
-26.936616878659901
20
-46.102082613188458
10
-7.2146533624427391
20
-25.630534396789141
42
-0.42517952708884926
10
7.1887200143665542
20
-25.63053439678913
10
26.908971533480432
20
-46.100305547166691
42
-0.035932549400234312
10
36.100457338612685
20
-57.126087007373904
10
47.330506265361372
20
-72.754353806916811
42
-0.026499738706026406
10
47.902194329070717
20
-73.646079228167537
42
-0.14498302280177197
10
51.520976515577985
20
-89.160974198570045
42
0.02392477928660874
10
51.527787667923761
20
-90.739091618050281
42
0.35163889639393825
10
55.277635201937997
20
-94.942558482112375
10
57.361066480906103
20
-95.291841850175899
42
-0.11737104688023353
10
58.640829805456093
20
-95.832579907994742
42
-0.28190029638587144
10
60.042055982688126
20
-99.262807844544938
10
58.948638563846231
20
-105.9615113011519
42
0.35195103835882813
10
61.686646459560777
20
-110.8887558534966
42
0.10777563399007131
10
68.623493867613078
20
-112.03870124716674
42
0.35293001930681211
10
72.854003010593274
20
-108.29503593602097
10
74.394483789623791
20
-98.867709040733516
42
-0.41441347880151708
10
75.628864760710769
20
-97.980716332114127
10
85.055138068164325
20
-99.527630988570138
42
0.35293001930682361
10
89.952626061941231
20
-96.712164966483286
42
0.10777563399006612
10
91.07531620256313
20
-89.770854339578818
42
0.35195103835882968
10
87.278742574728895
20
-85.60426643050522
0
CIRCLE
5
101
100
AcDbEntity
8
0
100
AcDbCircle
10
-75.01076437350649
20
-9.9854976471555101
30
0
40
1.5500000000000025
210
0
220
0
230
1
0
LWPOLYLINE
5
102
100
AcDbEntity
8
0
100
AcDbPolyline
90
8
70
1
43
0.0
10
-48.010782911774868
20
5.0144223665349035
10
-57.010783135292264
20
5.0144223665349017
42
0.41421356237309509
10
-60.010783135292307
20
2.0144223665349155
10
-60.010783135292307
20
-1.9855777824766965
42
0.41421356237309503
10
-57.010783135292264
20
-4.9855777824767014
10
-48.010782911774868
20
-4.9855777824766996
42
0.41421356237309509
10
-45.010782911774896
20
-1.985577782476696
10
-45.010782911774896
20
2.0144223665349164
42
0.41421356237309503
0
CIRCLE
5
103
100
AcDbEntity
8
0
100
AcDbCircle
10
-62.011299969369951
20
-9.985959125444408
30
0
40
1.5500000000000025
210
0
220
0
230
1
0
LWPOLYLINE
5
104
100
AcDbEntity
8
0
100
AcDbPolyline
90
4
70
1
43
0.0
10
77.310254695554974
20
92.56976666778435
42
-0.1894954628867104
10
76.949209921259865
20
92.510643318600003
42
1.4675987714115877
10
77.415450586774668
20
89.663481272286333
42
-0.18949546288685346
10
77.77649536107009
20
89.722604621470538
42
1.4675987714094365
0
LWPOLYLINE
5
105
100
AcDbEntity
8
0
100
AcDbPolyline
90
4
70
1
43
0.0
10
-77.438027902135374
20
-89.634981800671781
42
-1.4675987714116199
10
-76.971787236620642
20
-92.482143846985124
42
0.189495462886871
10
-77.332832010915766
20
-92.541267196169656
42
-1.4675987714094325
10
-77.799072676430768
20
-89.694105149855943
42
0.189495462886767
0
LWPOLYLINE
5
106
100
AcDbEntity
8
0
100
AcDbPolyline
90
4
70
1
43
0.0
10
76.944141891441191
20
-92.480366780963394
42
-1.467598771411663
10
77.410382556955966
20
-89.633204734650022
42
0.18949546288661406
10
77.771427331251232
20
-89.69232808383407
42
-1.4675987714093244
10
77.305186665736286
20
-92.539490130147882
42
0.18949546288680208
0
CIRCLE
5
107
100
AcDbEntity
8
0
100
AcDbCircle
10
-10.010782241207901
20
-9.9855777079733734
30
0
40
1.5500000000000003
210
0
220
0
230
1
0
CIRCLE
5
108
100
AcDbEntity
8
0
100
AcDbCircle
10
9.9892177587922415
20
-9.9855777079733734
30
0
40
1.5500000000000003
210
0
220
0
230
1
0
CIRCLE
5
109
100
AcDbEntity
8
0
100
AcDbCircle
10
15.239051392892765
20
15.265029558434273
30
0
40
1.4749999999999996
210
0
220
0
230
1
0
CIRCLE
5
110
100
AcDbEntity
8
0
100
AcDbCircle
10
29.989136760116921
20
20.014402608645526
30
0
40
1.5500000000000025
210
0
220
0
230
1
0
CIRCLE
5
111
100
AcDbEntity
8
0
100
AcDbCircle
10
44.989190310973264
20
15.01441560285252
30
0
40
1.5500000000000025
210
0
220
0
230
1
0
LWPOLYLINE
5
112
100
AcDbEntity
8
0
100
AcDbPolyline
90
4
70
1
43
0.0
10
29.989218205812143
20
10.014422441040709
42
-0.99999999999999989
10
34.989218280317942
20
10.014422441040709
10
34.989218280317942
20
-9.9855778569824967
42
-0.99999999999999989
10
29.989218205812136
20
-9.9855778569824967
0
CIRCLE
5
113
100
AcDbEntity
8
0
100
AcDbCircle
10
-42.011299969370256
20
-9.9859591254444062
30
0
40
1.5500000000000025
210
0
220
0
230
1
0
CIRCLE
5
114
100
AcDbEntity
8
0
100
AcDbCircle
10
-42.011299969370256
20
10.014040874555558
30
0
40
1.5500000000000025
210
0
220
0
230
1
0
CIRCLE
5
115
100
AcDbEntity
8
0
100
AcDbCircle
10
-15.26162870825431
20
-15.236530086818387
30
0
40
1.4749999999999996
210
0
220
0
230
1
0
CIRCLE
5
116
100
AcDbEntity
8
0
100
AcDbCircle
10
-30.010884705455744
20
-19.985586876219049
30
0
40
1.5500000000000025
210
0
220
0
230
1
0
CIRCLE
5
117
100
AcDbEntity
8
0
100
AcDbCircle
10
-15.26065528273222
20
15.256531173970034
30
0
40
1.4749999999999996
210
0
220
0
230
1
0
CIRCLE
5
118
100
AcDbEntity
8
0
100
AcDbCircle
10
-30.011401677326852
20
20.013882204333079
30
0
40
1.5500000000000025
210
0
220
0
230
1
0
LWPOLYLINE
5
119
100
AcDbEntity
8
0
100
AcDbPolyline
90
4
70
1
43
0.0
10
59.674166854319694
20
-89.652299911654509
42
-1.4675987714093413
10
60.140407519834667
20
-86.80513786534047
42
0.18949546288666985
10
60.501452294130033
20
-86.864261214524774
42
-1.4675987714116105
10
60.035211628615116
20
-89.711423260838245
42
0.18949546288679509
0
LWPOLYLINE
5
120
100
AcDbEntity
8
0
100
AcDbPolyline
90
4
70
1
43
0.0
10
60.14547554965354
20
86.835414402977136
42
-1.4675987714093657
10
59.67923488413858
20
89.682576449291162
42
0.18949546288690411
10
60.040279658433917
20
89.741699798474997
42
-1.4675987714116927
10
60.506520323948635
20
86.89453775216171
42
0.18949546288680594
0
LWPOLYLINE
5
121
100
AcDbEntity
8
0
100
AcDbPolyline
90
4
70
1
43
0.0
10
-59.700838773977942
20
89.674078064826972
42
-0.18949546288688268
10
-60.061883548273194
20
89.733201414010978
42
1.4675987714117034
10
-60.528124213787997
20
86.886039367697535
42
-0.18949546288680688
10
-60.167079439492888
20
86.826916018513117
42
1.4675987714094416
0
LWPOLYLINE
5
122
100
AcDbEntity
8
0
100
AcDbPolyline
90
4
70
1
43
0.0
10
39.989218354823741
20
5.014422366534907
42
-0.99999999999999989
10
44.989218429329547
20
5.014422366534907
10
44.989218429329547
20
-4.985577782476696
42
-0.99999999999999989
10
39.989218354823741
20
-4.985577782476696
0
CIRCLE
5
123
100
AcDbEntity
8
0
100
AcDbCircle
10
68.7278651226042
20
89.702590535380921
30
0
40
3.4999999999999964
210
0
220
0
230
1
0
CIRCLE
5
124
100
AcDbEntity
8
0
100
AcDbCircle
10
68.722797092785669
20
-89.672313997744183
30
0
40
3.4999999999999964
210
0
220
0
230
1
0
LWPOLYLINE
5
125
100
AcDbEntity
8
0
100
AcDbPolyline
90
4
70
1
43
0.0
10
65.914744309566103
20
-97.893658796399677
42
-1.4675987714116341
10
68.761906355879688
20
-98.359899461914722
42
0.18949546288675206
10
68.702783006695711
20
-98.720944236209903
42
-1.4675987714093874
10
65.855620960381756
20
-98.254703570694986
42
0.18949546288680846
0
LWPOLYLINE
5
126
100
AcDbEntity
8
0
100
AcDbPolyline
90
4
70
1
43
0.0
10
-60.168052865014189
20
-86.806914931362286
42
-1.4675987714094083
10
-59.701812199499251
20
-89.654076977676297
42
0.18949546288668256
10
-60.062856973794567
20
-89.713200326860203
42
-1.4675987714116221
10
-60.529097639309448
20
-86.866038280546505
42
0.18949546288666339
0
LWPOLYLINE
5
127
100
AcDbEntity
8
0
100
AcDbPolyline
90
4
70
1
43
0.0
10
65.860688990200856
20
98.284980108331595
42
-1.467598771409357
10
68.707851036514683
20
98.751220773846569
42
0.18949546288682254
10
68.766974385698461
20
98.390175999551445
42
-1.467598771411641
10
65.919812339385061
20
97.923935334036287
42
0.18949546288659475
0
CIRCLE
5
128
100
AcDbEntity
8
0
100
AcDbCircle
10
-62.011299969369951
20
10.014040874555558
30
0
40
1.5500000000000025
210
0
220
0
230
1
0
CIRCLE
5
129
100
AcDbEntity
8
0
100
AcDbCircle
10
-75.010759891550705
20
10.014509761539019
30
0
40
1.5500000000000025
210
0
220
0
230
1
0
LWPOLYLINE
5
130
100
AcDbEntity
8
0
100
AcDbPolyline
90
4
70
1
43
0.0
10
-77.798099250909459
20
89.714106237006462
42
-1.4675987714093195
10
-77.331858585394372
20
92.56126828332026
42
0.18949546288666425
10
-76.970813811099262
20
92.50214493413614
42
-1.467598771411619
10
-77.437054476613994
20
89.654982887822442
42
0.18949546288686514
0
LWPOLYLINE
5
131
100
AcDbEntity
8
0
100
AcDbPolyline
90
4
70
1
43
0.0
10
-68.789551701059366
20
-98.361676527936623
42
-1.4675987714116379
10
-65.942389654745696
20
-97.895435862421408
42
0.18949546288686442
10
-65.883266305561307
20
-98.256480636716773
42
-1.4675987714093819
10
-68.730428351875148
20
-98.72272130223169
42
0.18949546288667901
0
CIRCLE
5
132
100
AcDbEntity
8
0
100
AcDbCircle
10
-10.010782241207901
20
10.014422292026609
30
0
40
1.5500000000000003
210
0
220
0
230
1
0
CIRCLE
5
133
100
AcDbEntity
8
0
100
AcDbCircle
10
-68.749469012443598
20
89.694092150916859
30
0
40
3.4999999999999964
210
0
220
0
230
1
0
LWPOLYLINE
5
134
100
AcDbEntity
8
0
100
AcDbPolyline
90
4
70
1
43
0.0
10
-65.941416229224387
20
97.915436949572197
42
-0.18949546288675467
10
-65.882292880040183
20
98.27648172386759
42
1.4675987714093706
10
-68.729454926353966
20
98.742722389382592
42
-0.18949546288679273
10
-68.788578275537759
20
98.381677615087312
42
1.4675987714115906
0
CIRCLE
5
135
100
AcDbEntity
8
0
100
AcDbCircle
10
9.9892177587922415
20
10.014422292026609
30
0
40
1.5500000000000003
210
0
220
0
230
1
0
CIRCLE
5
136
100
AcDbEntity
8
0
100
AcDbCircle
10
-68.75044243796512
20
-89.674091063765985
30
0
40
3.4999999999999964
210
0
220
0
230
1
0
CIRCLE
5
137
100
AcDbEntity
8
0
100
AcDbCircle
10
15.23398336307482
20
-15.234753020796639
30
0
40
1.4749999999999996
210
0
220
0
230
1
0
CIRCLE
5
138
100
AcDbEntity
8
0
100
AcDbCircle
10
44.989146187591729
20
-14.985532672943405
30
0
40
1.5500000000000025
210
0
220
0
230
1
0
CIRCLE
5
139
100
AcDbEntity
8
0
100
AcDbCircle
10
29.989138779746504
20
-19.985658847058328
30
0
40
1.5500000000000025
210
0
220
0
230
1
0
LWPOLYLINE
5
140
100
AcDbEntity
8
0
100
AcDbPolyline
90
23
70
1
43
0.0
10
-0.0067058205604553223
20
-5.9999984502792358
10
-0.0067058205604553223
20
-4.6378296613693237
10
-1.0755792260169983
20
-4.6378296613693237
10
-4.3882450461387634
20
0.231209397315979
10
-1.2206128239631653
20
4.6338587999343872
10
-0.10033160448074341
20
4.6338587999343872
10
-0.10033160448074341
20
5.9960275888442993
10
-2.0279803872108459
20
5.9960275888442993
10
-5.7600992918014526
20
0.60149133205413818
10
-5.7600992918014526
20
4.6338587999343872
10
-4.684271514415741
20
4.6338587999343872
10
-4.684271514415741
20
5.9960275888442993
10
-8.2765725255012512
20
5.9960275888442993
10
-8.2765725255012512
20
4.6338587999343872
10
-7.2943705320358276
20
4.6338587999343872
10
-7.2943705320358276
20
-4.6378296613693237
10
-8.2765725255012512
20
-4.6378296613693237
10
-8.2765725255012512
20
-5.9999984502792358
10
-4.684271514415741
20
-5.9999984502792358
10
-4.684271514415741
20
-4.6378296613693237
10
-5.6977647542953491
20
-4.6378296613693237
10
-5.6977647542953491
20
-0.18427073955535889
10
-2.0307114720344543
20
-5.9999984502792358
0
LWPOLYLINE
5
141
100
AcDbEntity
8
0
100
AcDbPolyline
90
14
70
1
43
0.0
10
2.3374173045158386
20
-4.6378296613693237
10
1.3552150130271912
20
-4.6378296613693237
10
1.3552150130271912
20
-5.9999984502792358
10
8.2686254382133484
20
-5.9999984502792358
10
8.2686254382133484
20
-2.8134924173355103
10
6.8903133273124695
20
-2.8134924173355103
10
6.8903133273124695
20
-4.6378296613693237
10
3.9340230822563171
20
-4.6378296613693237
10
3.9340230822563171
20
4.6338587999343872
10
4.9475166201591492
20
4.6338587999343872
10
4.9475166201591492
20
5.9960275888442993
10
1.3552150130271912
20
5.9960275888442993
10
1.3552150130271912
20
4.6338587999343872
10
2.3374173045158386
20
4.6338587999343872
0
LWPOLYLINE
5
142
100
AcDbEntity
8
0
100
AcDbPolyline
90
4
70
1
43
0.0
10
25.00000037252903
20
-5.000000074505806
10
25.00000037252903
20
5.000000074505806
42
0.99999999999999989
10
20.000000298023224
20
5.000000074505806
10
20.000000298023224
20
-5.000000074505806
42
0.99999999999999989
0
LWPOLYLINE
5
143
100
AcDbEntity
8
0
100
AcDbPolyline
90
8
70
1
43
0.0
10
-28.00000037252903
20
5.000000074505806
10
-37.000000596046448
20
5.0000000745058069
42
0.41421356237309537
10
-40.000000596046448
20
2.0000000745058055
10
-40.000000596046448
20
-2.0000000745058077
42
0.41421356237309515
10
-37.000000596046448
20
-5.000000074505806
10
-28.00000037252903
20
-5.000000074505806
42
0.41421356237309515
10
-25.00000037252903
20
-2.0000000745058082
10
-25.00000037252903
20
2.0000000745058077
42
0.41421356237309515
0
LWPOLYLINE
5
144
100
AcDbEntity
8
0
100
AcDbPolyline
90
6
70
1
43
0.0
10
-15.000000223517418
20
-2.0000000745058113
10
-15.000000223517418
20
2.0000000745058077
42
0.36597738543318986
10
-17.500000260770324
20
4.9580399723525055
42
0.36597738543318908
10
-20.000000298023224
20
2.0000000745058113
10
-20.000000298023224
20
-2.0000000745058077
42
0.36597738543319025
10
-17.500000260770314
20
-4.9580399723525073
42
0.36597738543318875
0
ENDSEC
0
SECTION
2
OBJECTS
0
DICTIONARY
5
C
100
AcDbDictionary
3
ACAD_GROUP
350
D
3
ACAD_MLINESTYLE
350
17
0
DICTIONARY
5
D
100
AcDbDictionary
0
DICTIONARY
5
1A
330
C
100
AcDbDictionary
0
DICTIONARY
5
17
100
AcDbDictionary
0
ENDSEC
0
EOF
