0
SECTION
2
HEADER
9
$INSUNITS
70
4
9
$ACADVER
1
AC1014
9
$HANDSEED
5
FFFF
0
ENDSEC
0
SECTION
2
TABLES
0
TABLE
2
VPORT
5
8
100
AcDbSymbolTable
0
ENDTAB
0
TABLE
2
LTYPE
5
5
100
AcDbSymbolTable
0
LTYPE
5
14
100
AcDbSymbolTableRecord
100
AcDbLinetypeTableRecord
2
BYBLOCK
70
0
0
LTYPE
5
15
100
AcDbSymbolTableRecord
100
AcDbLinetypeTableRecord
2
BYLAYER
70
0
0
ENDTAB
0
TABLE
2
LAYER
5
2
100
AcDbSymbolTable
70
2
0
LAYER
5
50
100
AcDbSymbolTableRecord
100
AcDbLayerTableRecord
2
0
70
0
6
CONTINUOUS
0
ENDTAB
0
TABLE
2
STYLE
5
3
100
AcDbSymbolTable
70
1
0
STYLE
5
11
100
AcDbSymbolTableRecord
100
AcDbTextStyleTableRecord
2
STANDARD
70
0
0
ENDTAB
0
TABLE
2
VIEW
5
6
100
AcDbSymbolTable
70
0
0
ENDTAB
0
TABLE
2
UCS
5
7
100
AcDbSymbolTable
70
0
0
ENDTAB
0
TABLE
2
APPID
5
9
100
AcDbSymbolTable
70
2
0
APPID
5
12
100
AcDbSymbolTableRecord
100
AcDbRegAppTableRecord
2
ACAD
70
0
0
ENDTAB
0
TABLE
2
DIMSTYLE
5
A
100
AcDbSymbolTable
70
1
0
ENDTAB
0
TABLE
2
BLOCK_RECORD
5
1
100
AcDbSymbolTable
70
1
0
BLOCK_RECORD
5
1F
100
AcDbSymbolTableRecord
100
AcDbBlockTableRecord
2
*MODEL_SPACE
0
BLOCK_RECORD
5
1B
100
AcDbSymbolTableRecord
100
AcDbBlockTableRecord
2
*PAPER_SPACE
0
ENDTAB
0
ENDSEC
0
SECTION
2
BLOCKS
0
BLOCK
5
20
100
AcDbEntity
100
AcDbBlockBegin
2
*MODEL_SPACE
0
ENDBLK
5
21
100
AcDbEntity
100
AcDbBlockEnd
0
BLOCK
5
1C
100
AcDbEntity
100
AcDbBlockBegin
2
*PAPER_SPACE
0
ENDBLK
5
1D
100
AcDbEntity
100
AcDbBlockEnd
0
ENDSEC
0
SECTION
2
ENTITIES
0
LWPOLYLINE
5
100
100
AcDbEntity
8
0
100
AcDbPolyline
90
31
70
1
43
0.0
10
36.924916056032295
20
-19.250000000024322
10
47.000000745081898
20
-19.250000000018041
42
0.41421356237309725
10
50.000000745080015
20
-16.250000000016168
10
50.000000745059772
20
16.250000000014929
42
0.41421356237272738
10
47.000000745061641
20
19.25000000001306
10
36.928880087355779
20
19.250000000019362
10
33.41862190225396
20
19.250000000021558
42
1.1142618484325189
10
26.499919001471252
20
19.999949959970643
10
23.899870209524462
20
18.000097251799275
10
-23.900895785626357
20
18.000097251799275
10
-26.500619436235869
20
19.999490268949792
42
1.0268011644312693
10
-33.495723524213595
20
19.814399345782725
10
-37.007995389685433
20
19.237742412908837
10
-74.147753201044509
20
13.140008624781302
42
-0.014679893952505291
10
-75.311464019364308
20
12.983873025126243
42
0.38406577530480424
10
-77.999977650328049
20
10.00008814180301
10
-77.999978482704478
20
6.2857420885848168
10
-75.012592052089772
20
6.2857420885848194
42
-0.99999999999999989
10
-75.012592052089772
20
-6.2142579114151806
10
-77.999981283925749
20
-6.2142579114151832
10
-77.999982132283932
20
-9.9999199391846236
42
0.38406772382528831
10
-75.31144890354858
20
-12.983707540606343
42
-0.014679179887686357
10
-74.147793418141191
20
-13.139826244249447
10
-36.059542251601016
20
-19.392918340947809
10
-33.495152148088074
20
-19.81392395286246
42
1.0269555806296482
10
-26.500102464235603
20
-20.000013366545481
10
-23.900051404169869
20
-18.000000268220901
10
-20.000000298023224
20
-18.000000268220901
10
23.899870209524462
20
-18.000052926709028
10
26.499921020971726
20
-20.000076940790123
42
1.1142741871254371
10
33.418601802326997
20
-19.25000000002651
0
CIRCLE
5
101
100
AcDbEntity
8
0
100
AcDbCircle
10
-30.000619436104223
20
19.999459912303983
30
0
40
1.5500000000000025
210
0
220
0
230
1
0
CIRCLE
5
102
100
AcDbEntity
8
0
100
AcDbCircle
10
-74.99997765032812
20
10.000087469509911
30
0
40
1.5500000000000025
210
0
220
0
230
1
0
CIRCLE
5
103
100
AcDbEntity
8
0
100
AcDbCircle
10
44.999972552195963
20
14.999993310823424
30
0
40
1.5500000000000025
210
0
220
0
230
1
0
CIRCLE
5
104
100
AcDbEntity
8
0
100
AcDbCircle
10
-30.000102464233084
20
-20.000009168248166
30
0
40
1.5500000000000025
210
0
220
0
230
1
0
CIRCLE
5
105
100
AcDbEntity
8
0
100
AcDbCircle
10
44.999928428814435
20
-14.999954964972515
30
0
40
1.5500000000000025
210
0
220
0
230
1
0
CIRCLE
5
106
100
AcDbEntity
8
0
100
AcDbCircle
10
29.999921020969211
20
-20.000081139087435
30
0
40
1.5500000000000025
210
0
220
0
230
1
0
CIRCLE
5
107
100
AcDbEntity
8
0
100
AcDbCircle
10
29.999919001339606
20
19.999980316616451
30
0
40
1.5500000000000025
210
0
220
0
230
1
0
CIRCLE
5
108
100
AcDbEntity
8
0
100
AcDbCircle
10
-74.999982132283932
20
-9.9999199391846236
30
0
40
1.5500000000000025
210
0
220
0
230
1
0
LWPOLYLINE
5
109
100
AcDbEntity
8
0
100
AcDbPolyline
90
4
70
1
43
0.0
10
48.000000715255737
20
-5.000000074505806
10
48.000000715255737
20
5.000000074505806
42
0.99999999999999989
10
43.000000640749931
20
5.000000074505806
10
43.000000640749931
20
-5.000000074505806
42
0.99999999999999989
0
LWPOLYLINE
5
110
100
AcDbEntity
8
0
100
AcDbPolyline
90
4
70
1
43
0.0
10
27.000000402331352
20
-5.000000074505806
10
27.000000402331352
20
5.000000074505806
42
-0.99999999999999989
10
32.000000476837158
20
5.000000074505806
10
32.000000476837158
20
-5.000000074505806
42
-0.99999999999999989
0
LWPOLYLINE
5
111
100
AcDbEntity
8
0
100
AcDbPolyline
90
20
70
1
43
0.0
10
-38.999999612569809
20
3.6064161360263824
10
-41.497310250997543
20
3.6064161360263824
10
-41.497310250997543
20
1.9240905344486237
10
-50.547724813222885
20
-2.9111753404140472
10
-58.49540576338768
20
1.3158120214939117
10
-58.49540576338768
20
3.1206132471561432
10
-60.992716401815414
20
3.1206132471561432
10
-60.992716401815414
20
-0.44254884123802185
10
-53.132449239492416
20
-4.4036422669887543
10
-60.992716401815414
20
-8.3100996911525726
10
-60.992716401815414
20
-11.9265316426754
10
-58.49540576338768
20
-11.9265316426754
10
-58.49540576338768
20
-10.098509639501572
10
-50.544992536306381
20
-5.8951990306377411
10
-41.497310250997543
20
-10.676283687353134
10
-41.497310250997543
20
-12.412334531545639
10
-38.999999612569809
20
-12.412334531545639
10
-38.999999612569809
20
-8.9179222285747528
10
-47.918833345174789
20
-4.3767796456813812
10
-38.999999612569809
20
0.16436353325843811
0
LINE
5
112
100
AcDbEntity
8
0
100
AcDbLine
10
-41.497310250997543
20
5.7517804205417633
30
0
11
-41.497310250997543
21
7.6959051191806793
31
0
0
LINE
5
113
100
AcDbEntity
8
0
100
AcDbLine
10
-41.497310250997543
20
7.6959051191806793
30
0
11
-58.466722816228867
21
7.6959051191806793
31
0
0
LINE
5
114
100
AcDbEntity
8
0
100
AcDbLine
10
-58.466722816228867
20
7.6959051191806793
30
0
11
-58.466722816228867
21
4.9518217146396637
31
0
0
LINE
5
115
100
AcDbEntity
8
0
100
AcDbLine
10
-58.466722816228867
20
4.9518217146396637
30
0
11
-60.992716401815414
21
4.9518217146396637
31
0
0
LINE
5
116
100
AcDbEntity
8
0
100
AcDbLine
10
-60.992716401815414
20
4.9518217146396637
30
0
11
-60.992716401815414
21
7.7013649046421051
31
0
0
SPLINE
5
117
100
AcDbEntity
8
0
100
AcDbSpline
70
0
71
3
72
9
73
5
74
0
42
0.000000001
43
0.0000000001
44
0.0000000001
40
0
40
0
40
0
40
0
40
0.13688760472765416
40
0.24142705179606402
40
0.24142705179606402
40
0.24142705179606402
40
0.24142705179606402
10
-60.992716401815414
20
7.7013649046421051
30
0
10
-60.98258641027023
20
8.1709882006446133
30
0
10
-60.964720263818641
20
8.999257261486262
30
0
10
-60.484796325498706
20
9.6665875561208416
30
0
10
-60.276986211538315
20
9.9555458128452301
30
0
0
SPLINE
5
118
100
AcDbEntity
8
0
100
AcDbSpline
70
0
71
3
72
9
73
5
74
0
42
0.000000001
43
0.0000000001
44
0.0000000001
40
0
40
0
40
0
40
0
40
0.099408095108340921
40
0.21517963787305117
40
0.21517963787305117
40
0.21517963787305117
40
0.21517963787305117
10
-60.276986211538315
20
9.9555458128452301
30
0
10
-60.000241962672938
20
10.149792306259782
30
0
10
-59.401198925087321
20
10.5702599760758
30
0
10
-58.66721201166888
20
10.604264647607993
30
0
10
-58.272310346364975
20
10.622559934854507
30
0
0
LINE
5
119
100
AcDbEntity
8
0
100
AcDbLine
10
-58.272310346364975
20
10.622559934854507
30
0
11
-41.497310250997543
21
10.622559934854507
31
0
0
LINE
5
120
100
AcDbEntity
8
0
100
AcDbLine
10
-41.497310250997543
20
10.622559934854507
30
0
11
-41.497310250997543
21
12.395035177469254
31
0
0
LINE
5
121
100
AcDbEntity
8
0
100
AcDbLine
10
-41.497310250997543
20
12.395035177469254
30
0
11
-38.999999612569809
21
12.395035177469254
31
0
0
LINE
5
122
100
AcDbEntity
8
0
100
AcDbLine
10
-38.999999612569809
20
12.395035177469254
30
0
11
-38.999999612569809
21
5.7517804205417633
31
0
0
LINE
5
123
100
AcDbEntity
8
0
100
AcDbLine
10
-38.999999612569809
20
5.7517804205417633
30
0
11
-41.497310250997543
21
5.7517804205417633
31
0
0
LWPOLYLINE
5
124
100
AcDbEntity
8
0
100
AcDbPolyline
90
4
70
1
43
0.0
10
-32.000000476837158
20
-5.000000074505806
10
-32.000000476837158
20
5.000000074505806
42
-0.99999999999999989
10
-27.000000402331352
20
5.000000074505806
10
-27.000000402331352
20
-5.000000074505806
42
-0.99999999999999989
0
LWPOLYLINE
5
125
100
AcDbEntity
8
0
100
AcDbPolyline
90
4
70
1
43
0.0
10
40.000000596046448
20
-5.000000074505806
10
40.000000596046448
20
5.000000074505806
42
0.99999999999999989
10
35.000000521540642
20
5.000000074505806
10
35.000000521540642
20
-5.000000074505806
42
0.99999999999999989
0
ENDSEC
0
SECTION
2
OBJECTS
0
DICTIONARY
5
C
100
AcDbDictionary
3
ACAD_GROUP
350
D
3
ACAD_MLINESTYLE
350
17
0
DICTIONARY
5
D
100
AcDbDictionary
0
DICTIONARY
5
1A
330
C
100
AcDbDictionary
0
DICTIONARY
5
17
100
AcDbDictionary
0
ENDSEC
0
EOF
